<?xml version="1.0" encoding="utf-8"?>
<!-- Generator: Adobe Illustrator 24.0.0, SVG Export Plug-In . SVG Version: 6.00 Build 0)  -->
<svg version="1.1" id="Layer_1" xmlns="http://www.w3.org/2000/svg" xmlns:xlink="http://www.w3.org/1999/xlink" x="0px" y="0px"
	 viewBox="0 0 400 400" style="enable-background:new 0 0 400 400;" xml:space="preserve">
<style type="text/css">
	.st0{fill:#A7A9AC;}
	.st1{fill:#7D7E81;}
	.st2{fill:#606776;}
	.st3{fill:#474E5D;}
</style>
<g>
	<rect x="7" y="373.9" class="st0" width="387" height="18.1"/>
	<rect x="7" y="387.5" class="st1" width="387" height="4.5"/>
	<rect x="25.1" y="355.7" class="st0" width="350.7" height="18.1"/>
	<rect x="25.1" y="369.3" class="st1" width="350.7" height="4.5"/>
	<rect x="43.3" y="153.1" class="st0" width="314.4" height="202.6"/>
	<path class="st2" d="M294.2,189.4c-16.7,0-30.2,13.5-30.2,30.2v136.1h60.5v-136C324.5,203,310.9,189.4,294.2,189.4z"/>
	<path class="st3" d="M270,225.7c0-16.7,13.5-30.2,30.2-30.2c6.8,0,13.1,2.3,18.1,6c-5.5-7.3-14.3-12.1-24.2-12.1
		c-16.7,0-30.2,13.5-30.2,30.2v136.1h6v-130H270z"/>
	<path class="st2" d="M200.5,189.4c-16.7,0-30.2,13.5-30.2,30.2v136.1h60.5v-136C230.7,203,217.2,189.4,200.5,189.4z"/>
	<path class="st3" d="M176.3,225.7c0-16.7,13.5-30.2,30.2-30.2c6.8,0,13.1,2.3,18.1,6c-5.5-7.3-14.3-12.1-24.2-12.1
		c-16.7,0-30.2,13.5-30.2,30.2v136.1h6L176.3,225.7L176.3,225.7z"/>
	<path class="st2" d="M106.8,189.4c-16.7,0-30.2,13.5-30.2,30.2v136.1H137v-136C137,203,123.5,189.4,106.8,189.4z"/>
	<path class="st3" d="M82.6,225.7c0-16.7,13.5-30.2,30.2-30.2c6.8,0,13.1,2.3,18.1,6c-5.5-7.3-14.3-12.1-24.2-12.1
		c-16.7,0-30.2,13.5-30.2,30.2v136.1h6L82.6,225.7L82.6,225.7z"/>
	<rect x="43.3" y="153.1" class="st1" width="314.4" height="9.1"/>
	<rect x="25.1" y="135" class="st0" width="350.7" height="18.1"/>
	<polygon class="st1" points="25.1,135 200.5,26.2 375.9,135 	"/>
	<polygon class="st3" points="25.1,135 41.2,135 206.5,32.4 371.9,135 375.9,135 200.5,26.2 	"/>
	<polygon class="st0" points="383.2,139.7 200.5,26.4 17.8,139.7 8.3,124.3 200.5,5 392.7,124.3 	"/>
</g>
</svg>
